<?xml version="1.0" standalone="no"?>
<!DOCTYPE svg PUBLIC "-//W3C//DTD SVG 20010904//EN"
 "http://www.w3.org/TR/2001/REC-SVG-20010904/DTD/svg10.dtd">
<svg version="1.0" xmlns="http://www.w3.org/2000/svg"
 width="48.000000pt" height="48.000000pt" viewBox="0 0 48.000000 48.000000"
 preserveAspectRatio="xMidYMid meet">

<g transform="translate(0.000000,48.000000) scale(0.100000,-0.100000)"
fill="#000000" stroke="none">
<path d="M72 460 c-62 -38 -72 -69 -72 -220 0 -219 21 -240 245 -240 154 0
177 7 216 66 16 25 19 49 19 169 0 224 -21 245 -240 245 -117 0 -139 -3 -168
-20z m235 -55 c21 -9 46 -23 56 -33 22 -20 61 -92 53 -99 -3 -3 -11 10 -19 29
-30 72 -114 118 -189 104 -55 -11 -58 -15 -51 -89 l6 -67 58 0 59 0 0 45 c0
33 -4 45 -15 45 -8 0 -15 5 -15 10 0 6 18 10 40 10 22 0 40 -4 40 -10 0 -5 -7
-10 -15 -10 -11 0 -15 -12 -15 -45 l0 -45 60 0 c58 0 60 -1 60 -25 0 -37 -24
-86 -56 -117 -116 -108 -304 -26 -304 133 0 36 35 127 46 117 2 -2 -5 -22 -16
-43 -25 -48 -25 -99 -2 -144 27 -54 42 -51 42 8 0 27 -4 53 -10 56 -5 3 -15
16 -21 28 -12 22 -12 22 10 3 l21 -19 0 56 c0 30 -3 62 -6 71 -8 20 -41 21
-47 1 -4 -11 -4 -10 -3 2 1 14 11 18 41 19 22 0 51 6 65 12 36 16 85 14 127
-3z"/>
<path d="M160 181 c0 -39 4 -51 18 -54 10 -3 6 -5 -10 -6 -38 -1 -35 -19 7
-37 87 -36 190 9 224 99 17 44 14 47 -44 47 l-55 0 0 -45 c0 -38 4 -47 23 -55
17 -7 10 -9 -33 -9 -43 0 -50 2 -32 9 18 8 22 17 22 55 l0 45 -60 0 -60 0 0
-49z"/>
</g>
</svg>
