<?xml version="1.0" standalone="no"?>
<!DOCTYPE svg PUBLIC "-//W3C//DTD SVG 20010904//EN"
 "http://www.w3.org/TR/2001/REC-SVG-20010904/DTD/svg10.dtd">
<svg version="1.0" xmlns="http://www.w3.org/2000/svg"
 width="434.000000pt" height="434.000000pt" viewBox="0 0 434.000000 434.000000"
 preserveAspectRatio="xMidYMid meet">
<metadata>
Created by potrace 1.11, written by Peter Selinger 2001-2013
</metadata>
<g transform="translate(0.000000,434.000000) scale(0.100000,-0.100000)"
fill="#000000" stroke="none">
<path d="M0 2170 l0 -2170 2170 0 2170 0 0 2170 0 2170 -2170 0 -2170 0 0
-2170z m2445 2045 c300 -42 596 -152 841 -311 442 -288 764 -734 884 -1228 27
-107 28 -121 16 -151 -24 -56 -106 -68 -144 -22 -7 9 -26 65 -42 125 -50 190
-156 433 -252 576 -279 414 -691 699 -1173 810 -403 93 -868 38 -1240 -146
-73 -37 -225 -129 -225 -136 0 -4 16 -44 36 -90 20 -47 48 -137 62 -201 25
-114 25 -127 31 -646 l6 -530 655 0 655 0 0 525 0 525 -160 5 c-170 5 -193 12
-214 57 -22 49 -7 100 39 126 25 15 78 17 510 17 514 0 524 -1 550 -49 13 -25
13 -77 0 -102 -22 -40 -61 -49 -220 -49 l-150 0 0 -530 0 -530 660 0 660 0 7
-27 c11 -45 -15 -348 -41 -473 -69 -341 -218 -653 -432 -910 -78 -94 -249
-262 -329 -322 -269 -204 -577 -342 -899 -403 -129 -25 -362 -36 -526 -24
-767 53 -1478 572 -1766 1288 -253 630 -184 1341 185 1904 99 151 261 341 276
325 4 -3 15 -48 25 -99 l19 -93 -42 -53 c-135 -170 -214 -305 -295 -498 -189
-449 -185 -989 10 -1440 71 -164 123 -253 228 -394 l52 -71 94 0 94 0 0 548
-1 547 -45 35 c-115 89 -414 431 -414 473 0 29 49 187 58 187 4 0 18 -21 32
-47 42 -80 164 -236 268 -344 l99 -103 6 382 c9 642 -13 908 -91 1084 -70 158
-219 194 -350 83 -90 -76 -132 -194 -132 -372 0 -107 -1 -114 -31 -164 -16
-28 -43 -78 -60 -111 -16 -32 -33 -56 -38 -54 -16 10 -34 192 -33 331 1 223
48 361 158 465 97 92 234 132 374 111 118 -19 190 -49 270 -113 19 -15 38 -28
41 -28 4 0 45 23 91 52 224 139 498 238 784 282 124 19 433 20 569 1z"/>
<path d="M1250 1515 l0 -545 139 0 c150 0 191 -9 215 -45 19 -29 20 -94 3
-115 -36 -45 -35 -45 -375 -50 l-325 -5 74 -59 c326 -261 702 -401 1106 -413
263 -8 452 17 677 91 297 98 604 300 812 536 264 299 442 704 471 1073 l6 77
-572 0 -571 0 0 -545 0 -545 145 0 c170 0 208 -10 229 -62 26 -62 -10 -129
-75 -142 -52 -10 -921 -7 -958 4 -54 15 -81 47 -81 94 0 23 6 48 13 56 34 42
47 45 211 50 l161 5 0 540 0 540 -652 3 -653 2 0 -545z"/>
</g>
</svg>
